M48
; DRILL file {KiCad 5.1.5+dfsg1-2build2} date Sa 13 Feb 2021 22:57:24 CET
; FORMAT={-:-/ absolute / inch / decimal}
; #@! TF.CreationDate,2021-02-13T22:57:24+01:00
; #@! TF.GenerationSoftware,Kicad,Pcbnew,5.1.5+dfsg1-2build2
; #@! TF.FileFunction,Plated,1,2,PTH
FMAT,2
INCH
T1C0.0157
T2C0.0315
T3C0.0320
T4C0.0394
T5C0.0402
T6C0.0433
T7C0.1260
%
G90
G05
T1
X6.05Y-2.85
X6.2Y-3.1
X6.4Y-3.35
X6.75Y-2.8
X7.1Y-2.85
X7.6Y-2.55
T2
X6.6Y-2.1
X6.7Y-2.1
X6.8Y-2.1
T3
X6.3Y-1.85
X6.66Y-1.85
X6.77Y-1.6
X7.13Y-1.6
X6.77Y-1.85
X7.13Y-1.85
T4
X7.0Y-2.7
X7.1Y-2.7
X7.2Y-2.7
X7.3Y-2.7
X7.4Y-2.7
X7.5Y-2.7
X7.35Y-1.6
X7.45Y-1.6
X7.85Y-1.4
X7.85Y-1.5
X7.85Y-1.6
X7.1Y-2.1
X7.2Y-2.1
X7.3Y-2.1
X7.4Y-2.1
X7.5Y-2.1
X5.5026Y-1.9758
X5.6026Y-1.9758
X5.7026Y-1.9758
X5.8026Y-1.9758
X5.9026Y-1.9758
X6.0026Y-1.9758
X6.1026Y-1.9758
X7.35Y-1.8
X7.45Y-1.8
X7.85Y-1.9
X7.85Y-2.0
X7.85Y-2.1
X7.85Y-2.2
X7.85Y-2.3
X7.85Y-2.4
X7.85Y-2.5
X7.85Y-2.6
X7.35Y-1.4
X7.45Y-1.4
X6.9Y-1.4
X7.0Y-1.4
T5
X5.55Y-2.4504
X5.55Y-2.5504
X5.55Y-2.6504
X5.55Y-2.7504
X5.55Y-2.8504
X5.55Y-2.9504
X5.55Y-3.0504
X5.55Y-3.1504
X5.55Y-3.2504
X5.55Y-3.3504
X5.55Y-3.4504
X5.55Y-3.5504
X5.55Y-3.6504
X5.55Y-3.7504
X5.55Y-3.8504
X5.55Y-3.9504
X5.55Y-4.0504
X5.55Y-4.1504
X5.55Y-4.2504
X6.55Y-2.4504
X6.55Y-2.5504
X6.55Y-2.6504
X6.55Y-2.7504
X6.55Y-2.8504
X6.55Y-2.9504
X6.55Y-3.0504
X6.55Y-3.1504
X6.55Y-3.2504
X6.55Y-3.3504
X6.55Y-3.4504
X6.55Y-3.5504
X6.55Y-3.6504
X6.55Y-3.7504
X6.55Y-3.8504
X6.55Y-3.9504
X6.55Y-4.0504
X6.55Y-4.1504
X6.55Y-4.2504
T6
X6.55Y-1.45
X6.55Y-1.55
X6.55Y-1.65
T7
X5.4165Y-1.3717
X7.9352Y-4.2795
T0
M30
